<svg width="62" height="62" viewBox="0 0 62 62" fill="none" xmlns="http://www.w3.org/2000/svg">
<path d="M58.125 31C58.125 45.973 45.9866 58.125 31 58.125C16.0134 58.125 3.875 45.973 3.875 31C3.875 16.0134 16.0134 3.875 31 3.875C45.9866 3.875 58.125 16.0134 58.125 31Z" fill="#283544"/>
<path d="M43.7141 24.1362C43.5661 24.2225 40.0425 26.0448 40.0425 30.0852C40.2085 34.6931 44.4891 36.309 44.5625 36.309C44.4891 36.3953 43.9163 38.5103 42.2194 40.7273C40.8728 42.6371 39.3782 44.5625 37.1085 44.5625C34.9496 44.5625 34.1746 43.2897 31.6835 43.2897C29.0083 43.2897 28.2514 44.5625 26.2031 44.5625C23.9335 44.5625 22.3281 42.5339 20.9081 40.6421C19.0632 38.166 17.4952 34.2804 17.4398 30.5495C17.4025 28.5724 17.8093 26.6291 18.8418 24.9784C20.2992 22.6739 22.901 21.1095 25.7422 21.0579C27.9192 20.9895 29.8567 22.4507 31.1853 22.4507C32.4585 22.4507 34.8389 21.0579 37.5321 21.0579C38.6946 21.0591 41.7946 21.3854 43.7141 24.1362ZM31.0012 20.6632C30.6137 18.8578 31.6835 17.0523 32.6799 15.9006C33.9532 14.5078 35.9641 13.5625 37.6982 13.5625C37.8089 15.368 37.1073 17.1386 35.8534 18.4283C34.7282 19.821 32.7907 20.8695 31.0012 20.6632Z" fill="white"/>
</svg>
