<svg xmlns="http://www.w3.org/2000/svg" width="24" height="24" fill-rule="evenodd" viewBox="0 0 24 24" id="video-frame-cut">
  <path fill="#111" fill-rule="evenodd" d="M7.94513 3.25L8.5 3.25C8.91421 3.25 9.25 3.58579 9.25 4C9.25 4.41421 8.91421 4.75 8.5 4.75H8C6.56459 4.75 5.56347 4.75159 4.80812 4.85315C4.07435 4.9518 3.68577 5.13225 3.40901 5.40901C3.13225 5.68577 2.9518 6.07434 2.85315 6.80812C2.75159 7.56347 2.75 8.56458 2.75 10V14C2.75 15.4354 2.75159 16.4365 2.85315 17.1919C2.9518 17.9257 3.13225 18.3142 3.40901 18.591C3.68577 18.8678 4.07435 19.0482 4.80812 19.1469C5.56347 19.2484 6.56459 19.25 8 19.25H8.5C8.91421 19.25 9.25 19.5858 9.25 20C9.25 20.4142 8.91421 20.75 8.5 20.75H7.94513C6.57754 20.75 5.47522 20.75 4.60825 20.6335C3.70814 20.5125 2.95027 20.2536 2.34835 19.6517C1.74643 19.0497 1.48754 18.2919 1.36652 17.3918C1.24996 16.5248 1.24998 15.4225 1.25 14.0549V9.94512C1.24998 8.57754 1.24996 7.47522 1.36652 6.60825C1.48754 5.70814 1.74643 4.95027 2.34835 4.34835C2.95027 3.74643 3.70814 3.48754 4.60825 3.36652C5.47522 3.24996 6.57754 3.24998 7.94513 3.25ZM19.1919 4.85315C18.4365 4.75159 17.4354 4.75 16 4.75H15.5C15.0858 4.75 14.75 4.41421 14.75 4C14.75 3.58579 15.0858 3.25 15.5 3.25L16.0549 3.25C17.4225 3.24998 18.5248 3.24996 19.3918 3.36652C20.2919 3.48754 21.0497 3.74643 21.6517 4.34835C22.2536 4.95027 22.5125 5.70814 22.6335 6.60825C22.75 7.47522 22.75 8.57754 22.75 9.94513V10C22.75 10.4142 22.4142 10.75 22 10.75C21.5858 10.75 21.25 10.4142 21.25 10C21.25 8.56458 21.2484 7.56347 21.1469 6.80812C21.0482 6.07434 20.8678 5.68577 20.591 5.40901C20.3142 5.13225 19.9257 4.9518 19.1919 4.85315ZM22 13.25C22.4142 13.25 22.75 13.5858 22.75 14V14.0549C22.75 15.4225 22.75 16.5248 22.6335 17.3918C22.5125 18.2919 22.2536 19.0497 21.6517 19.6516C21.0497 20.2536 20.2919 20.5125 19.3918 20.6335C18.5248 20.75 17.4225 20.75 16.0549 20.75H15.5C15.0858 20.75 14.75 20.4142 14.75 20C14.75 19.5858 15.0858 19.25 15.5 19.25H16C17.4354 19.25 18.4365 19.2484 19.1919 19.1469C19.9257 19.0482 20.3142 18.8678 20.591 18.591C20.8678 18.3142 21.0482 17.9257 21.1469 17.1919C21.2484 16.4365 21.25 15.4354 21.25 14C21.25 13.5858 21.5858 13.25 22 13.25Z" clip-rule="evenodd"></path>
  <path fill="#111" fill-rule="evenodd" d="M17 3.25C17.4142 3.25 17.75 3.58579 17.75 4V20C17.75 20.4142 17.4142 20.75 17 20.75 16.5858 20.75 16.25 20.4142 16.25 20V4C16.25 3.58579 16.5858 3.25 17 3.25zM7 3.25C7.41421 3.25 7.75 3.58579 7.75 4V20C7.75 20.4142 7.41421 20.75 7 20.75 6.58579 20.75 6.25 20.4142 6.25 20V4C6.25 3.58579 6.58579 3.25 7 3.25z" clip-rule="evenodd"></path>
  <path fill="#111" fill-rule="evenodd" d="M1.75 9C1.75 8.58579 2.08579 8.25 2.5 8.25H7C7.41422 8.25 7.75 8.58579 7.75 9 7.75 9.41421 7.41422 9.75 7 9.75H2.5C2.08579 9.75 1.75 9.41421 1.75 9zM16.25 9C16.25 8.58579 16.5858 8.25 17 8.25H21.5C21.9142 8.25 22.25 8.58579 22.25 9 22.25 9.41421 21.9142 9.75 21.5 9.75H17C16.5858 9.75 16.25 9.41421 16.25 9zM1.75 15C1.75 14.5858 2.08579 14.25 2.5 14.25H7C7.41422 14.25 7.75 14.5858 7.75 15 7.75 15.4142 7.41422 15.75 7 15.75H2.5C2.08579 15.75 1.75 15.4142 1.75 15zM16.25 15C16.25 14.5858 16.5858 14.25 17 14.25H21.5C21.9142 14.25 22.25 14.5858 22.25 15 22.25 15.4142 21.9142 15.75 21.5 15.75H17C16.5858 15.75 16.25 15.4142 16.25 15zM9.77629 3.12017C9.3001 2.28685 9.90181 1.25 10.8616 1.25H13.1384C14.0982 1.25 14.6999 2.28685 14.2237 3.12017L13.0853 5.11239C12.6054 5.95216 11.3946 5.95216 10.9147 5.11239L9.77629 3.12017zM11.2924 2.75L12 3.98833 12.7076 2.75H11.2924zM10.9147 18.8876C11.3946 18.0478 12.6054 18.0478 13.0853 18.8876L14.2237 20.8798C14.6999 21.7131 14.0982 22.75 13.1384 22.75H10.8616C9.90181 22.75 9.3001 21.7131 9.77629 20.8798L10.9147 18.8876zM12 20.0117L11.2924 21.25H12.7076L12 20.0117zM12 10.75C12.4142 10.75 12.75 11.0858 12.75 11.5V12.5C12.75 12.9142 12.4142 13.25 12 13.25 11.5858 13.25 11.25 12.9142 11.25 12.5V11.5C11.25 11.0858 11.5858 10.75 12 10.75zM12 6.75C12.4142 6.75 12.75 7.08579 12.75 7.5V8.5C12.75 8.91421 12.4142 9.25 12 9.25 11.5858 9.25 11.25 8.91421 11.25 8.5V7.5C11.25 7.08579 11.5858 6.75 12 6.75zM12 14.75C12.4142 14.75 12.75 15.0858 12.75 15.5V16.5C12.75 16.9142 12.4142 17.25 12 17.25 11.5858 17.25 11.25 16.9142 11.25 16.5V15.5C11.25 15.0858 11.5858 14.75 12 14.75z" clip-rule="evenodd"></path>
</svg>