<svg width="48" height="49" viewBox="0 0 48 49" fill="none" xmlns="http://www.w3.org/2000/svg">
<path d="M1.33714 31.2955C4.25775 41.0314 13.2923 48.125 23.985 48.125C37.0408 48.125 47.625 37.5475 47.625 24.5C47.625 11.4523 37.0408 0.875 23.985 0.875C11.4565 0.875 1.20524 10.6148 0.395592 22.9304C0.39559 26.4687 0.395592 27.9453 1.33714 31.2955Z" fill="url(#paint0_linear_303_573)"/>
<path d="M22.7692 18.6998L16.9844 27.0978C15.6208 27.0358 14.248 27.4216 13.1085 28.1705L0.40591 22.9446C0.40591 22.9446 0.111981 27.7771 1.3369 31.3787L10.3169 35.0816C10.7678 37.0953 12.1501 38.8616 14.1894 39.7113C17.526 41.1044 21.3731 39.5166 22.7611 36.1807C23.1223 35.3087 23.2907 34.3941 23.2664 33.4816L31.7464 27.5743C36.6996 27.5743 40.7256 23.5388 40.7256 18.583C40.7256 13.6268 36.6996 9.59498 31.7464 9.59498C26.9622 9.59498 22.5011 13.7695 22.7692 18.6998ZM21.3792 35.6007C20.305 38.1782 17.3411 39.401 14.7649 38.3283C13.5764 37.8334 12.6791 36.927 12.1614 35.8461L15.0845 37.0568C16.9844 37.8476 19.1642 36.9473 19.9539 35.0491C20.7461 33.149 19.8474 30.967 17.9485 30.1761L14.9268 28.9249C16.0928 28.4828 17.4183 28.4666 18.6567 28.9817C19.9052 29.5008 20.874 30.4783 21.3874 31.7274C21.9007 32.9766 21.8987 34.3556 21.3792 35.6007ZM31.7464 24.573C28.4489 24.573 25.7643 21.8861 25.7643 18.583C25.7643 15.2826 28.4489 12.5949 31.7464 12.5949C35.0458 12.5949 37.7305 15.2826 37.7305 18.583C37.7305 21.8861 35.0458 24.573 31.7464 24.573ZM27.2639 18.5739C27.2639 16.0891 29.2769 14.0738 31.7565 14.0738C34.2382 14.0738 36.2512 16.0891 36.2512 18.5739C36.2512 21.0589 34.2382 23.0724 31.7565 23.0724C29.2769 23.0724 27.2639 21.0589 27.2639 18.5739Z" fill="white"/>
<defs>
<linearGradient id="paint0_linear_303_573" x1="24" y1="0.875" x2="24" y2="48.125" gradientUnits="userSpaceOnUse">
<stop stop-color="#111D2E"/>
<stop offset="0.21248" stop-color="#051839"/>
<stop offset="0.40695" stop-color="#0A1B48"/>
<stop offset="0.5811" stop-color="#132E62"/>
<stop offset="0.7376" stop-color="#144B7E"/>
<stop offset="0.87279" stop-color="#136497"/>
<stop offset="1" stop-color="#1387B8"/>
</linearGradient>
</defs>
</svg>
